<svg xmlns="http://www.w3.org/2000/svg" viewBox="0 0 734 703" width="734" height="703">
	<style>
		tspan { white-space:pre }
		.shp0 { fill: #3f3d56 } 
		.shp1 { fill: #6c63ff } 
		.shp2 { fill: #f2f2f2 } 
		.shp3 { fill: #ffffff } 
	</style>
	<path id="Layer" class="shp0" d="M618.53 193.75L413.78 193.75L413.78 192.68C413.78 192.27 413.69 191.86 413.54 191.47C413.38 191.09 413.15 190.75 412.85 190.45C412.56 190.16 412.21 189.93 411.83 189.77C411.45 189.61 411.04 189.53 410.63 189.53L324.08 189.53C323.67 189.53 323.26 189.61 322.87 189.77C322.49 189.93 322.15 190.16 321.85 190.45C321.56 190.75 321.33 191.09 321.17 191.47C321.01 191.86 320.93 192.27 320.93 192.68L320.93 193.75L115.33 193.75C113.51 193.75 111.71 194.11 110.03 194.81C108.35 195.5 106.82 196.52 105.54 197.81C104.25 199.09 103.23 200.62 102.53 202.3C101.84 203.98 101.48 205.78 101.48 207.6L101.48 487.98C101.48 489.8 101.84 491.6 102.53 493.28C103.23 494.96 104.25 496.48 105.54 497.77C106.82 499.06 108.35 500.08 110.03 500.77C111.71 501.47 113.51 501.83 115.33 501.83L618.53 501.83C620.35 501.83 622.15 501.47 623.83 500.77C625.51 500.08 627.04 499.06 628.33 497.77C629.61 496.48 630.63 494.96 631.33 493.28C632.02 491.6 632.38 489.8 632.38 487.98L632.38 207.6C632.38 205.78 632.02 203.98 631.33 202.3C630.63 200.62 629.61 199.09 628.33 197.81C627.04 196.52 625.51 195.5 623.83 194.81C622.15 194.11 620.35 193.75 618.53 193.75L618.53 193.75Z" />
	<path id="Layer" class="shp1" d="M126.34 223.23C126.17 223.23 126.01 223.26 125.85 223.33C125.69 223.39 125.55 223.49 125.43 223.61C125.31 223.73 125.21 223.87 125.15 224.03C125.08 224.19 125.05 224.35 125.05 224.52L125.05 490.47C125.05 490.64 125.08 490.81 125.15 490.96C125.21 491.12 125.31 491.26 125.43 491.38C125.55 491.5 125.69 491.6 125.85 491.66C126.01 491.73 126.17 491.76 126.34 491.76L607.52 491.76C607.69 491.76 607.86 491.73 608.01 491.66C608.17 491.6 608.31 491.5 608.43 491.38C608.55 491.26 608.65 491.12 608.71 490.96C608.78 490.81 608.81 490.64 608.81 490.47L608.81 224.52C608.81 224.35 608.78 224.19 608.71 224.03C608.65 223.87 608.55 223.73 608.43 223.61C608.31 223.49 608.17 223.39 608.01 223.33C607.86 223.26 607.69 223.23 607.52 223.23L126.34 223.23Z" />
	<path id="Layer" class="shp1" d="M366.51 210.63C363.71 210.63 361.44 208.37 361.44 205.57C361.44 202.77 363.71 200.5 366.51 200.5C369.31 200.5 371.57 202.77 371.57 205.57C371.57 208.37 369.31 210.63 366.51 210.63Z" />
	<path id="Layer" class="shp0" d="M641.6 482.93L593.42 482.93L593.42 477.95C593.42 477.68 593.11 477.46 592.73 477.46L576.21 477.46C575.83 477.46 575.52 477.68 575.52 477.95L575.52 482.93L565.19 482.93L565.19 477.95C565.19 477.68 564.88 477.46 564.5 477.46L547.98 477.46C547.6 477.46 547.29 477.68 547.29 477.95L547.29 482.93L536.97 482.93L536.97 477.95C536.97 477.68 536.66 477.46 536.28 477.46L519.76 477.46C519.38 477.46 519.07 477.68 519.07 477.95L519.07 482.93L508.74 482.93L508.74 477.95C508.74 477.68 508.43 477.46 508.05 477.46L491.53 477.46C491.15 477.46 490.84 477.68 490.84 477.95L490.84 482.93L480.52 482.93L480.52 477.95C480.52 477.68 480.21 477.46 479.83 477.46L463.31 477.46C462.93 477.46 462.62 477.68 462.62 477.95L462.62 482.93L452.29 482.93L452.29 477.95C452.29 477.68 451.98 477.46 451.6 477.46L435.08 477.46C434.7 477.46 434.39 477.68 434.39 477.95L434.39 482.93L424.07 482.93L424.07 477.95C424.07 477.68 423.76 477.46 423.38 477.46L293.96 477.46C293.58 477.46 293.27 477.68 293.27 477.95L293.27 482.93L282.95 482.93L282.95 477.95C282.95 477.68 282.64 477.46 282.26 477.46L265.74 477.46C265.36 477.46 265.05 477.68 265.05 477.95L265.05 482.93L254.72 482.93L254.72 477.95C254.72 477.68 254.41 477.46 254.03 477.46L237.51 477.46C237.13 477.46 236.82 477.68 236.82 477.95L236.82 482.93L226.5 482.93L226.5 477.95C226.5 477.68 226.19 477.46 225.81 477.46L209.29 477.46C208.91 477.46 208.6 477.68 208.6 477.95L208.6 482.93L198.27 482.93L198.27 477.95C198.27 477.68 197.96 477.46 197.58 477.46L181.06 477.46C180.68 477.46 180.37 477.68 180.37 477.95L180.37 482.93L170.05 482.93L170.05 477.95C170.05 477.68 169.74 477.46 169.36 477.46L152.84 477.46C152.46 477.46 152.15 477.68 152.15 477.95L152.15 482.93L141.82 482.93L141.82 477.95C141.82 477.68 141.52 477.46 141.13 477.46L124.61 477.46C124.23 477.46 123.92 477.68 123.92 477.95L123.92 482.93L92.26 482.93C83.13 482.93 75.74 488.25 75.74 494.81L75.74 500.18C75.74 506.74 83.13 512.05 92.26 512.05L641.6 512.05C650.73 512.05 658.13 506.74 658.13 500.18L658.13 494.81C658.13 488.25 650.73 482.93 641.6 482.93Z" />
	<path id="Layer" class="shp2" d="M310.91 335.11L168.69 335.11C168.39 335.11 168.1 335 167.89 334.79C167.68 334.58 167.57 334.29 167.57 333.99C167.57 333.7 167.68 333.41 167.89 333.2C168.1 332.99 168.39 332.87 168.69 332.87L310.91 332.87C311.21 332.87 311.49 332.99 311.7 333.2C311.91 333.41 312.03 333.7 312.03 333.99C312.03 334.29 311.91 334.58 311.7 334.79C311.49 335 311.21 335.11 310.91 335.11L310.91 335.11Z" />
	<path id="Layer" class="shp2" d="M310.91 359.75L168.69 359.75C168.39 359.75 168.1 359.63 167.89 359.42C167.68 359.21 167.57 358.93 167.57 358.63C167.57 358.33 167.68 358.05 167.89 357.84C168.1 357.63 168.39 357.51 168.69 357.51L310.91 357.51C311.21 357.51 311.49 357.63 311.7 357.84C311.91 358.05 312.03 358.33 312.03 358.63C312.03 358.93 311.91 359.21 311.7 359.42C311.49 359.63 311.21 359.75 310.91 359.75L310.91 359.75Z" />
	<path id="Layer" class="shp2" d="M310.91 384.39L168.69 384.39C168.39 384.39 168.1 384.27 167.89 384.06C167.68 383.85 167.56 383.57 167.56 383.27C167.56 382.97 167.68 382.69 167.89 382.48C168.1 382.27 168.39 382.15 168.69 382.15L310.91 382.15C311.21 382.15 311.49 382.27 311.7 382.48C311.91 382.69 312.03 382.97 312.03 383.27C312.03 383.57 311.91 383.85 311.7 384.06C311.49 384.27 311.21 384.39 310.91 384.39L310.91 384.39Z" />
	<path id="Layer" class="shp3" d="M376.42 270.72L552.24 270.72C554.1 270.72 555.6 272.22 555.6 274.08L555.6 443.18C555.6 445.04 554.1 446.54 552.24 446.54L376.42 446.54C374.56 446.54 373.06 445.04 373.06 443.18L373.06 274.08C373.06 272.22 374.56 270.72 376.42 270.72Z" />
	<path id="Layer" class="shp1" d="M409.61 363.77C410.22 353.12 414.58 343.03 421.93 335.3C429.28 327.57 439.13 322.7 449.74 321.56C460.34 320.42 471.01 323.09 479.83 329.08C488.66 335.07 495.07 344 497.92 354.28C498.46 354.26 499.01 354.24 499.56 354.24C500.03 354.25 500.49 354.27 500.96 354.31C501.43 354.35 501.89 354.41 502.35 354.49C502.81 354.57 503.27 354.67 503.73 354.78C504.18 354.9 504.63 355.03 505.07 355.18C527.46 362.53 521.56 395.95 498 395.95L440.09 395.95C436 395.97 431.94 395.15 428.17 393.56C424.39 391.97 420.98 389.63 418.13 386.68C415.28 383.74 413.06 380.25 411.59 376.43C410.12 372.61 409.44 368.53 409.58 364.43C409.59 364.21 409.6 363.99 409.61 363.77Z" />
	<path id="Layer" class="shp3" d="M462.4 363.07L462.4 344.65L452.48 344.65L452.48 363.07L444.56 363.07L451 374.22L457.44 385.38L463.88 374.22L470.32 363.07L462.4 363.07L462.4 363.07Z" />
</svg>