<svg xmlns="http://www.w3.org/2000/svg" viewBox="0 0 1068 832" width="1068" height="832">
	<style>
		tspan { white-space:pre }
		.shp0 { fill: #3f3d56 } 
		.shp1 { opacity: 0.102;fill: #000000 } 
		.shp2 { fill: #2f2e41 } 
		.shp3 { fill: #f2f2f2 } 
	</style>
	<path id="Layer" class="shp0" d="M1008 700.71C1008 747.93 785.93 831.71 512 831.71C238.07 831.71 42 661.93 42 614.71C42 567.49 238.07 660.71 512 660.71C785.93 660.71 1008 653.49 1008 700.71Z" />
	<path id="Layer" class="shp1" d="M1008 700.71C1008 747.93 785.93 831.71 512 831.71C238.07 831.71 42 661.93 42 614.71C42 567.49 238.07 660.71 512 660.71C785.93 660.71 1008 653.49 1008 700.71Z" />
	<path id="Layer" class="shp0" d="M1008 700.21C1008 747.43 785.93 785.71 512 785.71C238.07 785.71 42 661.93 42 614.71C42 567.49 238.07 614.71 512 614.71C785.93 614.71 1008 652.99 1008 700.21Z" />
	<path id="Layer" class="shp2" d="M436.19 567.15L426.15 631.28C426.15 631.28 376.69 657.55 411.46 658.32C446.23 659.09 610.04 658.32 610.04 658.32C610.04 658.32 641.72 658.32 591.5 630.5L581.45 563.28L436.19 567.15Z" />
	<path id="Layer" class="shp1" d="M404.47 657.62C412.37 650.6 426.15 643.28 426.15 643.28L436.19 579.15L581.45 579.28L591.5 642.5C603.21 648.99 610.46 653.96 614.71 657.78C621.16 656.31 628.21 650.84 591.5 630.5L581.45 563.28L436.19 567.15L426.15 631.28C426.15 631.28 384.59 653.35 404.47 657.62Z" />
	<path id="Layer" class="shp2" d="M203.83 120.16L812.26 120.16C824.99 120.16 835.27 130.44 835.27 143.17L835.27 553.02C835.27 565.75 824.99 576.03 812.26 576.03L203.83 576.03C191.11 576.03 180.82 565.75 180.82 553.02L180.82 143.17C180.82 130.44 191.11 120.16 203.83 120.16Z" />
	<path id="Layer" class="shp0" d="M202.84 144.5L813.25 144.5L813.25 486.02L202.84 486.02L202.84 144.5Z" />
	<path id="Layer" class="shp3" d="M508.05 137.54C505.91 137.54 504.18 135.82 504.18 133.68C504.18 131.54 505.91 129.82 508.05 129.82C510.18 129.82 511.91 131.54 511.91 133.68C511.91 135.82 510.18 137.54 508.05 137.54Z" />
	<path id="Layer" class="shp2" d="M835.27 513.06L835.27 553.02C835.27 556.04 834.68 559.04 833.52 561.83C832.37 564.62 830.67 567.16 828.53 569.29C826.4 571.43 823.86 573.12 821.07 574.28C818.28 575.44 815.28 576.03 812.26 576.03L203.83 576.03C200.81 576.03 197.82 575.44 195.03 574.28C192.24 573.12 189.7 571.43 187.56 569.29C185.43 567.16 183.73 564.62 182.57 561.83C181.42 559.04 180.82 556.04 180.82 553.02L180.82 513.06L835.27 513.06Z" />
	<path id="Layer" class="shp2" d="M678.81 700.04L678.81 707.77L263.11 707.77L263.11 701.59L263.69 700.04L273.93 672.23L670.31 672.23L678.81 700.04L678.81 700.04Z" />
	<path id="Layer" class="shp2" d="M838.78 692.48C838.02 695.72 835.16 699.13 828.71 702.36C805.53 713.95 758.39 699.27 758.39 699.27C758.39 699.27 722.08 693.09 722.08 676.86C722.33 676.69 722.59 676.52 722.85 676.35C723.11 676.19 723.37 676.02 723.64 675.87C723.9 675.71 724.17 675.56 724.44 675.41C724.71 675.26 724.99 675.11 725.26 674.97C735.01 669.82 767.32 657.09 824.61 675.51C825.66 675.84 826.69 676.24 827.68 676.71C828.67 677.18 829.63 677.72 830.55 678.32C831.47 678.92 832.35 679.59 833.18 680.31C834.01 681.04 834.78 681.82 835.5 682.65C837.83 685.36 839.65 688.81 838.78 692.48Z" />
	<path id="Layer" class="shp1" d="M838.78 692.48C810.41 703.35 785.12 704.16 759.17 686.14C746.08 677.05 734.18 674.8 725.26 674.97C735.01 669.82 767.32 657.09 824.61 675.51C825.66 675.84 826.69 676.24 827.68 676.71C828.67 677.18 829.63 677.72 830.55 678.32C831.47 678.92 832.35 679.59 833.18 680.31C834.01 681.04 834.78 681.82 835.5 682.65C837.83 685.36 839.65 688.81 838.78 692.48Z" />
	<path id="Layer" class="shp3" d="M803.21 686.14C797.65 686.14 793.16 684.75 793.16 683.05C793.16 681.34 797.65 679.95 803.21 679.95C808.76 679.95 813.25 681.34 813.25 683.05C813.25 684.75 808.76 686.14 803.21 686.14Z" />
	<path id="Layer" class="shp3" d="M508.05 559.42C499.93 559.42 493.37 552.86 493.37 544.74C493.37 536.62 499.93 530.06 508.05 530.06C516.17 530.06 522.73 536.62 522.73 544.74C522.73 552.86 516.17 559.42 508.05 559.42Z" />
	<path id="Layer" class="shp1" d="M678.81 700.04L678.81 707.77L263.11 707.77L263.11 701.59L263.69 700.04L678.81 700.04L678.81 700.04Z" />
</svg>